HIERARCHY
ROOT Hips
{
	OFFSET 0.000000 0.000000 0.000000
	CHANNELS 6 Xposition Yposition Zposition Zrotation Yrotation Xrotation 
	JOINT LHipJoint
	{
		OFFSET 0.000000 0.000000 0.000000
		CHANNELS 3 Zrotation Yrotation Xrotation
		JOINT LeftUpLeg
		{
			OFFSET 1.363060 -1.794630 0.839290
			CHANNELS 3 Zrotation Yrotation Xrotation
			JOINT LeftLeg
			{
				OFFSET 2.448110 -6.726130 0.000000
				CHANNELS 3 Zrotation Yrotation Xrotation
				JOINT LeftFoot
				{
					OFFSET 2.562200 -7.039590 0.000000
					CHANNELS 3 Zrotation Yrotation Xrotation
					JOINT LeftToeBase
					{
						OFFSET 0.157640 -0.433110 2.322550
						CHANNELS 3 Zrotation Yrotation Xrotation
						End Site
						{
							OFFSET 0.000000 0.000000 0.000000
						}
					}
				}
			}
		}
	}
	JOINT RHipJoint
	{
		OFFSET 0.000000 0.000000 0.000000
		CHANNELS 3 Zrotation Yrotation Xrotation
		JOINT RightUpLeg
		{
			OFFSET -1.305520 -1.794630 0.839290
			CHANNELS 3 Zrotation Yrotation Xrotation
			JOINT RightLeg
			{
				OFFSET -2.542530 -6.985550 0.000000
				CHANNELS 3 Zrotation Yrotation Xrotation
				JOINT RightFoot
				{
					OFFSET -2.568260 -7.056230 0.000000
					CHANNELS 3 Zrotation Yrotation Xrotation
					JOINT RightToeBase
					{
						OFFSET -0.164730 -0.452590 2.363150
						CHANNELS 3 Zrotation Yrotation Xrotation
						End Site
						{
							OFFSET 0.000000 0.000000 0.000000
						}
					}
				}
			}
		}
	}
	JOINT LowerBack
	{
		OFFSET 0.000000 0.000000 0.000000
		CHANNELS 3 Zrotation Yrotation Xrotation
		JOINT Spine
		{
			OFFSET 0.028270 2.035590 -0.193380
			CHANNELS 3 Zrotation Yrotation Xrotation
			JOINT Spine1
			{
				OFFSET 0.056720 2.048850 -0.042750
				CHANNELS 3 Zrotation Yrotation Xrotation
				JOINT Neck
				{
					OFFSET 0.000000 0.000000 0.000000
					CHANNELS 3 Zrotation Yrotation Xrotation
					JOINT Neck1
					{
						OFFSET -0.054170 1.746240 0.172020
						CHANNELS 3 Zrotation Yrotation Xrotation
						JOINT Head
						{
							OFFSET 0.104070 1.761360 -0.123970
							CHANNELS 3 Zrotation Yrotation Xrotation
							End Site
							{
								OFFSET 0.000000 0.000000 0.000000
							}
						}
					}
				}
				JOINT LeftShoulder
				{
					OFFSET 0.000000 0.000000 0.000000
					CHANNELS 3 Zrotation Yrotation Xrotation
					JOINT LeftArm
					{
						OFFSET 3.362410 1.200890 -0.311210
						CHANNELS 3 Zrotation Yrotation Xrotation
						JOINT LeftForeArm
						{
							OFFSET 4.983000 -0.000000 -0.000000
							CHANNELS 3 Zrotation Yrotation Xrotation
							JOINT LeftHand
							{
								OFFSET 3.483560 -0.000000 -0.000000
								CHANNELS 3 Zrotation Yrotation Xrotation
								JOINT LeftFingerBase
								{
									OFFSET 0.000000 0.000000 0.000000
									CHANNELS 3 Zrotation Yrotation Xrotation
									JOINT LeftHandIndex1
									{
										OFFSET 0.715260 -0.000000 -0.000000
										CHANNELS 3 Zrotation Yrotation Xrotation
										End Site
										{
											OFFSET 0.000000 0.000000 0.000000
										}
									}
								}
								JOINT LThumb
								{
									OFFSET 0.000000 0.000000 0.000000
									CHANNELS 3 Zrotation Yrotation Xrotation
									End Site
									{
										OFFSET 0.000000 0.000000 0.000000
									}
								}
							}
						}
					}
				}
				JOINT RightShoulder
				{
					OFFSET 0.000000 0.000000 0.000000
					CHANNELS 3 Zrotation Yrotation Xrotation
					JOINT RightArm
					{
						OFFSET -3.136600 1.374050 -0.404650
						CHANNELS 3 Zrotation Yrotation Xrotation
						JOINT RightForeArm
						{
							OFFSET -5.241900 -0.000000 -0.000000
							CHANNELS 3 Zrotation Yrotation Xrotation
							JOINT RightHand
							{
								OFFSET -3.444170 -0.000000 -0.000000
								CHANNELS 3 Zrotation Yrotation Xrotation
								JOINT RightFingerBase
								{
									OFFSET 0.000000 0.000000 0.000000
									CHANNELS 3 Zrotation Yrotation Xrotation
									JOINT RightHandIndex1
									{
										OFFSET -0.622530 -0.000000 -0.000000
										CHANNELS 3 Zrotation Yrotation Xrotation
										End Site
										{
											OFFSET 0.000000 0.000000 0.000000
										}
									}
								}
								JOINT RThumb
								{
									OFFSET 0.000000 0.000000 0.000000
									CHANNELS 3 Zrotation Yrotation Xrotation
									End Site
									{
										OFFSET 0.000000 0.000000 0.000000
									}
								}
							}
						}
					}
				}
			}
		}
	}
}
MOTION
Frames: 4
Frame Time: 0.008333
9.803474 17.870119 49.498258 -176.922384 -10.024811 177.337474 -0.626893 4.092509 1.549758 -18.156091 -26.527030 1.345092 -2.493777 8.052534 23.012725 -3.888691 12.832071 -4.805988 4.038900 -12.211900 -36.485900 -3.228326 -4.074338 0.931809 26.544699 21.588278 6.535899 2.999089 -6.288731 21.015727 7.536183 -28.018961 -22.087239 -0.022400 0.966700 -2.657200 8.474098 3.349385 5.671981 1.819688 5.337337 -0.912180 -8.053722 1.632418 -11.552871 7.869100 17.576493 -7.574336 2.366387 23.371875 9.906209 -1.923600 11.976500 4.794200 -1.913903 -9.876816 1.581155 -88.395425 11.210893 32.830305 25.931056 -25.961681 -7.476134 1.616409 0.791699 15.085596 5.909744 -31.480018 -2.482200 -7.125000 0.000000 0.000000 -15.298000 -1.844600 16.369900 0.410843 11.497695 2.905014 86.440251 -10.343835 47.203237 -20.425325 23.054195 -5.522691 1.219419 0.267296 14.438793 -2.140497 -46.932030 2.397100 7.125000 0.000000 0.000000 55.956300 -70.120500 -37.228100 
9.805474 17.873649 49.496611 -177.036830 -10.161709 177.404461 -0.646896 4.084027 1.548524 -18.204568 -26.482407 1.322199 -2.519184 8.003737 22.868487 -3.852997 12.740817 -4.629468 4.083200 -12.270300 -36.695000 -3.228404 -4.063851 0.930371 26.388732 21.444090 6.355053 2.972438 -6.343840 21.170246 7.473234 -27.866543 -22.160417 -0.013600 0.752500 -2.068000 8.402836 3.309370 5.631477 1.708140 5.266552 -0.919676 -8.008799 1.607404 -11.547938 7.840411 17.572904 -7.667190 2.364663 23.376321 9.946964 -1.909900 11.977900 4.816400 -1.898498 -9.870910 1.580818 -88.424937 11.337621 32.888992 26.126794 -26.154057 -7.555760 1.607786 0.761406 14.850081 5.442597 -30.810399 -2.182000 -7.125000 0.000000 0.000000 -15.534100 -1.107200 16.443200 0.416756 11.498241 2.907610 86.377433 -10.285505 47.416584 -20.419123 23.056179 -5.536830 1.219724 0.270443 14.251949 -2.355699 -47.274087 2.570600 7.125000 0.000000 0.000000 56.578600 -70.374100 -38.003600 
9.805356 17.877767 49.495317 -177.129898 -10.072758 177.569212 -0.662138 4.051652 1.519016 -18.241537 -26.455960 1.199497 -2.527744 7.995062 22.826900 -3.885799 12.821108 -4.603235 4.149800 -12.357100 -37.007200 -3.212171 -4.043497 0.921748 26.087540 21.197638 5.968414 2.950254 -6.376016 21.209384 7.448353 -27.628741 -21.734048 -0.012200 0.713100 -1.959800 8.283862 3.387438 5.569980 1.702292 5.345665 -1.032943 -7.965585 1.653282 -11.523136 7.768569 17.562121 -7.628051 2.325248 23.361585 9.849977 -1.927000 11.960700 4.777700 -1.913576 -9.883732 1.583926 -88.519812 11.336853 32.845418 25.955919 -25.956450 -7.462362 1.587244 0.793877 15.614181 6.745633 -30.831484 -2.907200 -7.125000 0.000000 0.000000 -14.792000 -1.328200 15.657400 0.423226 11.491153 2.915834 86.343387 -10.299169 47.318443 -20.394301 23.023455 -5.528435 1.220987 0.268282 14.385952 -2.258058 -47.341628 2.501200 7.125000 0.000000 0.000000 56.825600 -70.377800 -38.206400 
9.805827 17.875296 49.495788 -177.163848 -9.899773 177.704961 -0.669929 4.025521 1.499788 -18.224742 -26.378717 1.095822 -2.540839 7.978730 22.766643 -3.950297 12.976060 -4.600403 4.099400 -12.291500 -36.771100 -3.199466 -4.022773 0.901002 25.883946 21.053860 5.637893 2.926579 -6.415606 21.257570 7.459252 -27.497198 -21.299320 -0.026200 1.045700 -2.874500 8.238218 3.491338 5.604105 1.702568 5.479525 -1.210708 -7.974798 1.713361 -11.550940 7.735952 17.556225 -7.477270 2.269401 23.344650 9.688299 -1.968800 11.941200 4.708800 -1.913882 -9.898423 1.595842 -88.503537 11.308747 32.887928 26.044247 -26.060953 -7.510096 1.616894 0.753569 14.992411 5.292544 -30.707807 -2.091600 -7.125000 0.000000 0.000000 -15.618300 -0.988900 16.507000 0.424970 11.474719 2.927750 86.304394 -10.414260 47.243742 -20.417381 23.044979 -5.534980 1.221174 0.261409 14.579439 -2.270429 -47.303650 2.508900 7.125000 0.000000 0.000000 56.716900 -70.360500 -38.100000 
